<svg width="139" height="279" viewBox="0 0 139 279" fill="none" xmlns="http://www.w3.org/2000/svg">
<path d="M69.5 278L1 209.5V2L69.5 70.5L138 2V209.5L69.5 278Z" fill="url(#paint0_linear_68_7)" stroke="#392779"/>
<path d="M59.824 161V159.944C59.824 158.312 60.176 156.76 60.88 155.288C61.616 153.784 62.592 152.312 63.808 150.872C65.024 149.4 66.4 147.912 67.936 146.408C69.088 145.256 70.16 144.136 71.152 143.048C72.176 141.928 73.024 140.824 73.696 139.736C74.368 138.616 74.72 137.496 74.752 136.376C74.816 134.2 74.288 132.568 73.168 131.48C72.08 130.392 70.544 129.848 68.56 129.848C66.896 129.848 65.52 130.44 64.432 131.624C63.344 132.776 62.8 134.456 62.8 136.664H60.016C60.016 134.744 60.368 133.064 61.072 131.624C61.808 130.184 62.816 129.08 64.096 128.312C65.408 127.512 66.896 127.112 68.56 127.112C71.312 127.112 73.52 127.928 75.184 129.56C76.848 131.192 77.632 133.48 77.536 136.424C77.504 137.896 77.12 139.304 76.384 140.648C75.648 141.96 74.704 143.24 73.552 144.488C72.432 145.736 71.216 147.016 69.904 148.328C68.784 149.448 67.712 150.568 66.688 151.688C65.664 152.776 64.8 153.88 64.096 155C63.392 156.12 62.96 157.24 62.8 158.36H77.2V161H59.824Z" fill="white"/>
<defs>
<linearGradient id="paint0_linear_68_7" x1="138" y1="2" x2="1" y2="209.5" gradientUnits="userSpaceOnUse">
<stop stop-color="#23196B"/>
<stop offset="0.7" stop-color="#371B6C"/>
</linearGradient>
</defs>
</svg>
