<?xml version="1.0" encoding="UTF-8"?>
<svg xmlns="http://www.w3.org/2000/svg" id="Layer_1" data-name="Layer 1" viewBox="0 0 24 24">
  <path d="m3,2.5c0-.828.672-1.5,1.5-1.5s1.5.672,1.5,1.5-.672,1.5-1.5,1.5-1.5-.672-1.5-1.5Zm.5,14.5c1.933,0,3.5-1.567,3.5-3.5s-1.567-3.5-3.5-3.5-3.5,1.567-3.5,3.5,1.567,3.5,3.5,3.5Zm14,4c-.828,0-1.5.672-1.5,1.5s.672,1.5,1.5,1.5,1.5-.672,1.5-1.5-.672-1.5-1.5-1.5Zm5-3c-.828,0-1.5.672-1.5,1.5s.672,1.5,1.5,1.5,1.5-.672,1.5-1.5-.672-1.5-1.5-1.5Zm1.5-6.317v1.588l-.626.466c-.06.043-.766.542-1.877,1.06-.872,1.889-2.784,3.203-4.997,3.203s-4.125-1.314-4.997-3.203c-1.11-.519-1.816-1.017-1.877-1.06l-.626-.449v-1.588l.687-.46c.083-.053.709-.445,1.696-.756.806-2.038,2.796-3.483,5.117-3.483s4.311,1.445,5.117,3.483c.987.311,1.613.703,1.696.756l.687.443Zm-10,.817c0,.023.001.046.002.069.752.247,1.61.431,2.498.431s1.746-.184,2.498-.432c0-.023.002-.045.002-.068,0-1.379-1.122-2.5-2.5-2.5s-2.5,1.121-2.5,2.5Zm-6.296-2.539c.346-.386.707-.773,1.094-1.161,4.027-4.026,8.054-5.801,10.277-5.801.655,0,1.153.153,1.449.449.486.486.588,1.52.254,2.896.959.668,1.757,1.55,2.317,2.583,1.255-3.171,1.195-5.954-.451-7.599-3.025-3.026-9.891-.727-15.968,5.352-.523.523-1.008,1.054-1.474,1.586.986.324,1.85.918,2.501,1.696Zm-4.258,10.565c-.312-.312-.461-.854-.443-1.563-1.092-.095-2.091-.51-2.906-1.149-.296,1.993.084,3.689,1.229,4.834.898.898,2.135,1.327,3.589,1.327,2.715,0,6.187-1.515,9.629-4.242-1.096-.296-2.092-.83-2.928-1.549-3.85,2.714-7.168,3.345-8.169,2.343Z"/>
</svg>
