<?xml version="1.0" standalone="no"?>
<!DOCTYPE svg PUBLIC "-//W3C//DTD SVG 20010904//EN"
 "http://www.w3.org/TR/2001/REC-SVG-20010904/DTD/svg10.dtd">
<svg version="1.0" xmlns="http://www.w3.org/2000/svg"
 width="2000.000000pt" height="2000.000000pt" viewBox="0 0 2000.000000 2000.000000"
 preserveAspectRatio="xMidYMid meet">

<g transform="translate(0.000000,2000.000000) scale(0.100000,-0.100000)"
fill="#000000" stroke="none">
<path d="M10333 15775 c9 -8 17 -19 19 -24 5 -14 146 -31 171 -21 19 7 17 9
-13 10 -26 0 -31 3 -20 10 21 13 3 27 -47 35 -36 6 -43 4 -43 -9 0 -20 -7 -20
-26 -1 -9 8 -24 15 -35 15 -18 0 -19 -2 -6 -15z"/>
<path d="M10298 15753 c7 -3 16 -2 19 1 4 3 -2 6 -13 5 -11 0 -14 -3 -6 -6z"/>
<path d="M10430 15701 c0 -5 7 -14 15 -21 8 -7 12 -16 9 -22 -3 -5 -1 -14 4
-21 6 -7 12 -16 14 -22 1 -5 6 -9 9 -8 3 1 4 -10 2 -25 -3 -21 2 -31 26 -47
17 -11 35 -30 42 -42 7 -13 20 -25 29 -28 18 -6 40 -45 40 -70 0 -8 5 -15 10
-15 6 0 10 -6 10 -13 0 -8 9 -22 20 -32 11 -10 20 -26 20 -37 0 -11 7 -18 20
-18 15 0 20 -7 20 -25 0 -14 5 -25 10 -25 6 0 10 -6 10 -13 0 -7 9 -23 20 -35
11 -12 20 -26 20 -32 0 -5 5 -10 10 -10 6 0 10 -10 10 -22 0 -33 57 -90 81
-83 16 5 19 1 19 -29 0 -27 8 -44 36 -71 19 -19 39 -33 43 -31 5 3 6 -6 3 -19
-3 -17 1 -27 12 -31 9 -3 16 -13 16 -22 0 -8 3 -13 6 -10 11 12 41 -30 48 -66
7 -36 58 -94 78 -88 5 1 7 -2 3 -7 -3 -6 12 -29 35 -52 22 -23 40 -49 40 -59
0 -9 12 -28 28 -42 15 -14 34 -35 42 -47 8 -12 29 -31 45 -41 17 -11 26 -20
21 -20 -5 0 3 -11 17 -24 14 -13 24 -32 23 -42 -2 -11 15 -35 41 -59 23 -23
43 -44 43 -48 0 -11 44 -52 53 -49 4 1 7 -2 7 -7 0 -5 -5 -11 -11 -13 -6 -2 7
-23 30 -46 22 -22 41 -45 41 -49 0 -5 9 -16 20 -26 11 -9 20 -23 20 -30 0 -15
57 -67 73 -67 5 0 7 -7 3 -15 -6 -16 47 -78 58 -68 3 4 6 -1 6 -10 0 -21 30
-57 47 -57 7 0 13 -11 13 -24 0 -16 11 -31 33 -45 17 -11 26 -21 20 -21 -20 0
-15 -18 7 -25 11 -3 20 -12 20 -19 0 -6 14 -20 31 -30 22 -13 27 -21 19 -26
-19 -12 -1 -33 22 -27 14 4 22 0 25 -14 3 -10 9 -17 13 -14 4 3 14 -3 21 -12
12 -15 12 -16 -3 -10 -14 5 -18 1 -18 -18 0 -15 6 -25 14 -25 14 0 31 -27 27
-43 -1 -5 3 -6 9 -2 5 3 10 1 10 -4 0 -6 5 -10 12 -9 7 2 12 -1 13 -7 0 -5 4
-16 9 -24 6 -10 5 -12 -2 -7 -8 5 -10 2 -6 -8 8 -22 41 -20 49 3 6 21 -8 66
-26 77 -8 5 -10 3 -4 -7 8 -12 6 -12 -8 0 -18 15 -23 26 -7 16 6 -3 10 -2 10
4 0 5 -4 12 -9 15 -5 4 -26 36 -46 74 -20 37 -65 111 -99 165 -33 54 -73 119
-87 145 -15 26 -32 46 -39 44 -6 -1 -9 2 -5 8 6 10 -103 193 -156 261 -16 20
-29 40 -29 43 0 15 -67 105 -74 99 -4 -4 -4 -1 -1 8 3 8 -4 24 -15 36 -11 12
-20 25 -20 28 0 6 -119 182 -150 222 -10 12 -19 20 -22 18 -3 -3 -5 1 -5 8 0
18 -124 197 -134 192 -4 -3 -11 0 -15 6 -5 8 -3 9 6 4 8 -5 11 -3 8 6 -3 8
-11 13 -17 11 -7 -1 -10 1 -7 6 3 5 -22 47 -55 92 -47 65 -63 80 -71 69 -8
-11 -9 -10 -4 4 7 23 -11 60 -26 51 -6 -4 -8 -3 -5 2 8 13 -9 39 -25 39 -7 0
-12 8 -10 17 1 9 -8 24 -20 32 -12 9 -19 16 -14 16 4 0 -12 24 -36 53 -24 28
-56 69 -71 90 -16 20 -35 37 -43 37 -8 0 -12 5 -9 10 4 6 -8 29 -26 51 -24 31
-34 37 -41 27 -6 -9 -8 -8 -6 7 2 12 -2 19 -10 17 -8 -1 -11 2 -7 8 9 15 -14
41 -29 33 -6 -3 -8 -3 -4 2 9 10 -11 37 -22 30 -4 -3 -7 1 -6 8 0 7 -14 30
-32 51 -26 30 -36 35 -47 26 -10 -8 -15 -8 -21 1 -4 7 -3 9 4 5 22 -13 23 16
1 40 -19 20 -32 24 -86 24 -35 0 -63 -4 -63 -9z m176 -90 c-4 -5 -15 -9 -26
-8 -10 1 -17 5 -14 9 3 4 11 5 19 1 8 -3 15 1 15 8 0 7 3 10 6 6 3 -3 3 -10 0
-16z m1168 -1677 c3 -8 2 -12 -4 -9 -6 3 -10 10 -10 16 0 14 7 11 14 -7z m116
-80 c0 -8 -19 -13 -24 -6 -3 5 1 9 9 9 8 0 15 -2 15 -3z m-15 -74 c3 -5 1 -10
-4 -10 -6 0 -11 5 -11 10 0 6 2 10 4 10 3 0 8 -4 11 -10z m78 -83 c3 -8 -1
-14 -9 -14 -15 0 -18 9 -7 20 9 9 10 9 16 -6z m65 -92 c3 -11 0 -15 -7 -10 -6
3 -9 10 -6 15 3 4 0 11 -5 13 -6 3 -5 4 2 3 7 -1 15 -11 16 -21z m62 -76 c0
-6 -11 3 -25 19 -14 17 -25 34 -25 38 1 12 50 -45 50 -57z m14 -60 c-3 -6 0
-16 7 -21 12 -8 11 -9 -1 -6 -9 3 -15 18 -16 38 -1 26 0 30 8 17 5 -10 6 -22
2 -28z"/>
<path d="M7385 15481 c-3 -5 -2 -12 3 -15 5 -3 9 1 9 9 0 17 -3 19 -12 6z"/>
<path d="M13550 15476 c0 -2 8 -10 18 -17 15 -13 16 -12 3 4 -13 16 -21 21
-21 13z"/>
<path d="M13530 15456 c0 -2 7 -7 16 -10 8 -3 12 -2 9 4 -6 10 -25 14 -25 6z"/>
<path d="M7445 15430 c-4 -6 1 -7 12 -3 16 6 16 4 -2 -18 -16 -18 -16 -21 -2
-10 9 8 21 11 25 7 4 -4 -1 -13 -11 -20 -9 -7 -17 -17 -17 -21 0 -4 7 -2 15 5
12 10 18 10 30 0 11 -9 15 -9 15 -1 0 7 5 9 10 6 6 -4 8 -10 5 -15 -3 -5 0
-19 7 -30 11 -17 11 -22 -2 -30 -9 -6 -10 -10 -3 -10 7 0 16 8 22 17 5 10 13
15 17 11 4 -4 2 -14 -5 -22 -9 -11 -8 -15 4 -20 9 -3 15 -13 13 -22 -2 -9 3
-19 11 -22 10 -3 12 0 8 12 -4 9 -3 15 2 12 5 -3 11 0 14 7 7 18 -44 75 -62
69 -8 -3 -12 1 -9 9 7 20 -21 49 -39 42 -10 -4 -14 -2 -11 7 4 14 -20 50 -34
50 -4 0 -10 -4 -13 -10z m156 -147 c12 -16 12 -17 -2 -6 -9 7 -20 9 -24 5 -5
-4 -5 -1 -1 6 9 16 11 15 27 -5z"/>
<path d="M13620 15417 c0 -2 15 -16 33 -33 l32 -29 -29 33 c-28 30 -36 37 -36
29z"/>
<path d="M13604 15388 c-4 -7 -3 -10 1 -5 5 4 18 -1 29 -10 21 -18 21 -18 2 5
-22 26 -23 26 -32 10z"/>
<path d="M13683 15340 c2 -8 10 -14 17 -12 6 1 10 -3 7 -10 -2 -7 -10 -12 -17
-10 -11 3 -11 0 0 -13 7 -9 20 -14 29 -13 9 2 22 -3 29 -12 11 -13 11 -12 2 7
-6 14 -16 20 -25 17 -11 -5 -14 0 -13 14 2 12 -1 21 -6 21 -5 -1 -13 5 -18 13
-8 10 -9 10 -5 -2z"/>
<path d="M7603 15235 c-23 -26 -23 -26 27 -29 21 -1 25 -45 6 -52 -9 -3 -16
-18 -17 -33 0 -14 -3 -20 -6 -13 -7 19 6 64 17 57 6 -3 10 3 10 15 0 19 -1 20
-16 6 -20 -20 -28 -20 -20 -1 3 9 0 15 -9 15 -18 0 -20 -55 -5 -96 8 -19 7
-31 -2 -42 -10 -12 -10 -14 0 -8 13 8 17 -6 5 -17 -4 -4 -7 -22 -8 -40 -4
-108 -5 -117 -20 -117 -11 0 -15 -13 -15 -54 0 -35 -5 -60 -15 -70 -8 -8 -15
-30 -15 -50 0 -19 -4 -37 -8 -40 -4 -3 -14 -28 -22 -55 -10 -38 -18 -51 -32
-51 -10 0 -18 -7 -18 -15 0 -8 -4 -15 -10 -15 -5 0 -14 -18 -20 -40 -6 -22
-20 -44 -30 -50 -11 -6 -20 -15 -20 -21 0 -6 -24 -34 -52 -63 -57 -57 -88 -95
-88 -108 0 -4 -11 -8 -25 -8 -14 0 -29 -8 -35 -20 -6 -10 -28 -24 -50 -30 -22
-6 -40 -15 -40 -20 0 -6 -7 -10 -15 -10 -8 0 -15 -4 -15 -9 0 -5 74 -14 164
-21 143 -11 164 -15 159 -29 -4 -13 -3 -13 5 -2 6 8 15 10 23 5 12 -6 12 -5 0
9 -12 15 -11 17 3 17 25 0 98 61 92 77 -3 7 0 12 7 10 7 -1 11 5 9 13 -2 8 0
12 4 7 4 -4 20 5 36 20 33 32 38 55 6 27 l-23 -19 19 22 c10 13 22 20 26 18
12 -7 71 77 65 93 -2 7 -1 10 5 7 12 -7 74 123 96 205 23 81 27 341 6 348 -6
2 -9 8 -6 14 7 11 -14 98 -27 113 -5 5 -9 17 -9 28 0 11 -4 15 -12 11 -7 -4
-8 -3 -4 4 4 6 -5 34 -19 62 -23 45 -28 50 -42 38 -15 -12 -15 -11 -4 10 15
28 11 28 -16 -3z m17 -165 c0 -5 -5 -10 -11 -10 -5 0 -7 5 -4 10 3 6 8 10 11
10 2 0 4 -4 4 -10z m77 -77 c-3 -10 -5 -2 -5 17 0 19 2 27 5 18 2 -10 2 -26 0
-35z m-86 -626 c-10 -9 -11 -8 -5 6 3 10 9 15 12 12 3 -3 0 -11 -7 -18z m-221
-221 c0 -2 -7 -7 -16 -10 -8 -3 -12 -2 -9 4 6 10 25 14 25 6z"/>
<path d="M13726 15250 c4 -8 7 -37 5 -65 -3 -52 -3 -71 -1 -145 4 -99 0 -171
-9 -166 -5 3 -12 -30 -16 -74 -4 -44 -11 -80 -16 -80 -5 0 -9 8 -9 17 0 14 -2
15 -12 4 -10 -11 -10 -14 0 -18 17 -6 15 -24 -4 -38 -9 -6 -16 -24 -16 -39 0
-16 -10 -34 -24 -45 -16 -13 -24 -29 -24 -50 0 -24 -10 -40 -40 -68 -24 -23
-40 -46 -40 -60 0 -16 -6 -23 -20 -23 -11 0 -29 -9 -40 -20 -11 -11 -20 -29
-20 -40 0 -11 -4 -20 -9 -20 -18 0 -73 -58 -67 -69 5 -7 -3 -11 -21 -11 -30
-1 -63 -20 -63 -39 0 -6 -4 -11 -8 -11 -15 0 -69 -55 -76 -76 -9 -31 22 -105
56 -132 19 -16 28 -33 28 -52 0 -19 8 -33 26 -45 19 -12 24 -22 20 -40 -6 -23
14 -51 27 -38 6 5 12 -94 8 -119 0 -5 6 -8 14 -8 11 0 15 -11 15 -40 0 -23 5
-40 11 -40 6 0 9 -9 6 -22 -3 -13 -2 -50 2 -83 7 -51 9 -54 10 -20 1 22 6 47
11 55 6 10 10 -42 10 -157 0 -147 -2 -173 -15 -173 -12 0 -15 -16 -15 -80 0
-47 -4 -80 -10 -80 -6 0 -10 -26 -10 -59 0 -40 -5 -63 -15 -71 -10 -9 -15 -31
-15 -72 0 -52 -3 -63 -25 -80 -14 -11 -25 -24 -25 -30 0 -5 -13 -27 -30 -48
-16 -21 -30 -43 -30 -48 0 -6 -11 -19 -25 -30 -29 -23 -33 -42 -8 -42 21 0 7
-16 -29 -34 -12 -6 -29 -24 -37 -40 -16 -35 -177 -196 -195 -196 -7 0 -21 -9
-32 -21 -18 -20 -18 -21 1 -35 27 -20 -4 -19 -33 1 -20 15 -21 15 -15 -2 6
-16 4 -16 -18 2 l-24 20 25 -30 c14 -17 27 -32 29 -35 2 -3 1 3 -2 13 -4 9 -3
17 1 17 14 0 74 -41 68 -47 -3 -3 -12 0 -20 7 -9 6 -21 10 -27 8 -22 -7 63
-49 111 -55 93 -11 208 45 291 142 19 22 37 42 40 45 4 3 35 39 69 80 34 41
77 93 95 115 18 22 42 50 53 63 11 13 35 41 52 62 17 21 41 49 52 62 11 13 37
43 57 68 20 25 41 50 47 56 9 11 -6 64 -101 349 -4 11 -8 25 -9 30 -7 44 -19
74 -27 70 -5 -4 -6 1 -3 10 7 18 -75 337 -85 331 -3 -2 -6 10 -7 27 -1 43 -77
233 -92 230 -6 -2 -9 3 -6 11 3 7 -1 20 -8 27 -7 8 -14 21 -16 29 -6 23 -23
40 -35 33 -6 -4 -8 0 -4 10 4 10 -3 21 -19 31 -32 22 -31 36 4 36 38 0 138 53
134 71 -2 8 0 11 3 7 13 -12 62 20 130 84 38 35 64 67 61 74 -3 8 0 13 5 11 6
-1 29 24 51 56 35 50 38 60 27 75 -12 15 -12 16 2 4 14 -11 20 -5 43 48 78
180 89 396 29 583 -9 28 -19 45 -25 41 -7 -5 -8 -2 -3 5 4 7 -1 30 -10 52 -16
34 -19 37 -30 22 -9 -13 -14 -13 -20 -3 -5 8 -4 11 2 7 17 -11 22 31 6 50 -8
10 -12 12 -8 6 3 -7 1 -21 -4 -30 -6 -11 -11 -13 -12 -5 -1 6 -2 16 -3 22 0 5
-7 15 -15 22 -12 11 -12 10 -5 -2z m82 -105 c-3 -3 -9 2 -12 12 -6 14 -5 15 5
6 7 -7 10 -15 7 -18z m-41 -7 c-3 -8 -6 -5 -6 6 -1 11 2 17 5 13 3 -3 4 -12 1
-19z m36 -659 c-8 -8 -13 -7 -18 2 -5 8 -4 10 3 5 7 -4 12 -2 12 5 0 7 3 9 7
6 4 -4 2 -12 -4 -18z m-323 -369 c0 -5 -10 -14 -22 -20 -22 -11 -22 -10 -4 4
20 16 20 16 0 32 -18 14 -18 15 4 4 12 -6 22 -15 22 -20z m-180 -90 c0 -5 -5
-10 -11 -10 -5 0 -7 5 -4 10 3 6 8 10 11 10 2 0 4 -4 4 -10z m70 -20 c8 -5 11
-10 5 -10 -5 0 -17 5 -25 10 -8 5 -10 10 -5 10 6 0 17 -5 25 -10z m35 -71 c-5
-7 -11 -6 -21 2 -16 13 -19 33 -4 24 6 -3 10 0 10 7 0 8 5 6 11 -5 5 -9 7 -22
4 -28z m62 -101 c2 -17 0 -19 -7 -8 -5 8 -6 18 -4 22 8 12 10 10 11 -14z m80
-340 c-3 -7 -5 -2 -5 12 0 14 2 19 5 13 2 -7 2 -19 0 -25z m30 -20 c-3 -8 -6
-5 -6 6 -1 11 2 17 5 13 3 -3 4 -12 1 -19z m-97 -8 c0 -11 -4 -20 -10 -20 -5
0 -10 9 -10 20 0 11 5 20 10 20 6 0 10 -9 10 -20z"/>
<path d="M15388 14130 c-31 -32 -36 -50 -12 -50 23 0 11 -24 -14 -28 -34 -5
-44 -26 -36 -81 l6 -50 57 -11 c31 -6 69 -15 85 -21 53 -17 151 -29 178 -21
34 9 37 25 6 34 -22 7 -22 7 2 4 14 -3 34 -6 45 -9 11 -2 14 -2 7 0 -7 3 -10
8 -7 13 3 5 1 11 -5 15 -5 3 -10 12 -10 18 0 7 4 6 10 -3 8 -11 10 -7 7 18 -1
18 -9 37 -16 42 -10 5 -12 19 -8 44 l6 36 -47 0 c-42 0 -51 4 -82 40 -33 37
-38 40 -90 39 -47 0 -59 -4 -82 -29z"/>
<path d="M6460 14136 c0 -2 8 -10 18 -17 15 -13 16 -12 3 4 -13 16 -21 21 -21
13z"/>
<path d="M6973 14133 c9 -2 23 -2 30 0 6 3 -1 5 -18 5 -16 0 -22 -2 -12 -5z"/>
<path d="M6506 14099 c8 -13 67 -39 86 -38 14 0 -27 20 -52 25 -8 2 -16 8 -18
13 -2 6 -8 11 -13 11 -6 0 -7 -5 -3 -11z"/>
<path d="M4960 14082 c0 -6 -19 -16 -42 -22 -31 -9 -38 -14 -27 -21 10 -6 10
-9 2 -9 -20 0 -16 -48 5 -54 9 -2 -1 -2 -23 1 -49 7 -39 -7 12 -17 l38 -8 -45
-1 c-38 -1 -42 -3 -26 -13 29 -16 263 6 287 28 10 9 23 13 31 8 7 -4 10 -4 6
1 -4 4 -3 14 3 22 8 9 8 13 1 13 -6 0 -9 6 -6 13 2 7 -7 23 -21 35 -21 19 -43
24 -111 29 -58 4 -84 3 -84 -5z"/>
<path d="M6658 14067 c-27 -6 -48 -13 -48 -17 0 -12 63 -3 95 14 33 18 23 18
-47 3z"/>
<path d="M5229 14013 c-13 -17 -13 -17 6 -3 11 8 22 16 24 17 2 2 0 3 -6 3 -6
0 -17 -8 -24 -17z"/>
<path d="M7447 14017 c-3 -7 3 -13 14 -13 13 0 15 3 7 13 -6 7 -12 13 -13 13
-2 0 -5 -6 -8 -13z"/>
<path d="M7520 13973 c0 -7 5 -15 11 -19 6 -3 8 -16 5 -29 -6 -22 30 -83 41
-71 3 2 -4 15 -16 27 -25 27 -27 44 -6 35 20 -7 19 -6 -10 34 -14 19 -25 29
-25 23z"/>
<path d="M15780 13900 c-8 -5 -10 -10 -5 -10 6 0 17 5 25 10 8 5 11 10 5 10
-5 0 -17 -5 -25 -10z"/>
<path d="M7570 13896 c0 -2 8 -10 18 -17 15 -13 16 -12 3 4 -13 16 -21 21 -21
13z"/>
<path d="M7530 13860 c0 -5 5 -10 11 -10 5 0 7 5 4 10 -3 6 -8 10 -11 10 -2 0
-4 -4 -4 -10z"/>
<path d="M7627 13780 c-9 -11 -13 -20 -7 -20 5 0 14 9 20 20 6 11 9 20 8 20
-2 0 -11 -9 -21 -20z"/>
<path d="M7660 13760 c6 -11 13 -20 16 -20 2 0 0 9 -6 20 -6 11 -13 20 -16 20
-2 0 0 -9 6 -20z"/>
<path d="M5387 13729 c7 -7 15 -10 18 -7 3 3 -2 9 -12 12 -14 6 -15 5 -6 -5z"/>
<path d="M7690 13706 c0 -2 8 -10 18 -17 15 -13 16 -12 3 4 -13 16 -21 21 -21
13z"/>
<path d="M5426 13691 c-4 -6 0 -18 9 -27 9 -10 13 -25 10 -38 -6 -20 -5 -20 8
2 15 26 31 18 16 -9 -7 -15 -6 -17 6 -13 8 3 12 11 9 16 -4 6 2 5 14 -1 12 -6
24 -17 28 -24 6 -8 3 -8 -9 1 -24 20 -42 4 -21 -19 12 -14 21 -16 30 -8 8 7
14 7 19 -1 3 -5 2 -10 -3 -10 -15 0 -23 -28 -10 -36 7 -4 8 -3 4 4 -13 21 6
13 41 -18 19 -17 37 -28 41 -26 4 3 8 -4 8 -15 0 -19 -1 -19 -13 -3 -11 15
-12 15 -10 -3 0 -11 9 -20 20 -20 10 -1 27 -12 37 -23 12 -14 24 -19 32 -14
11 6 11 5 0 -8 -10 -12 -10 -17 1 -27 8 -6 16 -8 19 -5 9 8 62 -49 63 -66 0
-8 8 -14 18 -14 10 1 17 -5 17 -17 0 -10 7 -19 14 -19 8 0 28 -17 43 -37 30
-40 91 -103 99 -103 11 0 -122 148 -133 149 -7 1 -13 7 -13 14 0 6 -19 32 -43
57 -24 25 -56 62 -71 82 -16 21 -32 35 -37 32 -5 -3 -8 -1 -7 4 2 5 -22 35
-53 68 -31 32 -83 88 -116 123 -38 41 -63 60 -67 52z m33 -35 c-3 -3 -11 5
-18 17 -13 21 -12 21 5 5 10 -10 16 -20 13 -22z m111 -117 c0 -6 -4 -7 -10 -4
-5 3 -10 11 -10 16 0 6 5 7 10 4 6 -3 10 -11 10 -16z m144 -160 c-3 -5 -10 -7
-15 -3 -5 3 -7 10 -3 15 3 5 10 7 15 3 5 -3 7 -10 3 -15z"/>
<path d="M7687 13642 c1 -8 3 -16 3 -18 0 -3 5 -2 10 1 6 3 10 11 10 16 0 6
-4 8 -9 5 -5 -4 -11 -3 -14 1 -2 5 -2 2 0 -5z"/>
<path d="M7725 13639 c-4 -6 -5 -12 -2 -15 2 -3 7 2 10 11 7 17 1 20 -8 4z"/>
<path d="M7737 13617 c-3 -8 1 -14 8 -14 7 0 11 6 8 14 -3 7 -6 13 -8 13 -2 0
-5 -6 -8 -13z"/>
<path d="M7760 13581 c0 -5 5 -13 10 -16 6 -3 10 -2 10 4 0 5 -4 13 -10 16 -5
3 -10 2 -10 -4z"/>
<path d="M12000 13535 c0 -14 4 -25 9 -25 4 0 6 11 3 25 -2 14 -6 25 -8 25 -2
0 -4 -11 -4 -25z"/>
<path d="M7771 13526 c-7 -13 -11 -32 -8 -42 4 -15 5 -14 6 5 0 14 8 33 18 43
9 10 12 18 6 18 -5 0 -15 -11 -22 -24z"/>
<path d="M7791 13483 c0 -12 -5 -23 -10 -25 -5 -1 -12 -16 -15 -33 -4 -16 -3
-24 0 -17 3 6 11 9 17 5 6 -4 8 0 4 9 -9 26 6 30 19 6 l13 -23 -2 23 c-1 12
-4 22 -8 22 -4 0 -10 12 -12 28 -3 20 -4 22 -6 5z"/>
<path d="M7810 13496 c0 -4 9 -16 20 -28 11 -12 20 -17 20 -11 0 5 -9 18 -20
28 -11 10 -20 15 -20 11z"/>
<path d="M12170 13371 c0 -5 -3 -18 -6 -28 -4 -13 -3 -15 4 -4 7 10 11 10 17
1 4 -7 2 -16 -6 -21 -7 -4 -10 -11 -6 -16 5 -4 12 -1 16 6 7 10 10 10 16 1 4
-7 1 -16 -6 -21 -11 -7 -11 -9 -1 -9 23 0 23 26 2 64 -22 36 -30 44 -30 27z"/>
<path d="M7776 13353 c-6 -14 -5 -15 5 -6 7 7 10 15 7 18 -3 3 -9 -2 -12 -12z"/>
<path d="M12225 13280 c-4 -7 -3 -15 2 -19 6 -3 22 -28 37 -56 30 -54 46 -75
46 -59 0 5 -12 26 -26 47 -14 21 -31 52 -38 69 -9 21 -16 27 -21 18z"/>
<path d="M5994 13067 c16 -20 30 -37 33 -37 7 0 -36 58 -49 66 -7 4 1 -9 16
-29z"/>
<path d="M9810 11941 c-41 -4 -63 -8 -48 -9 79 -6 76 -30 -4 -35 l-63 -3 71
-2 c53 -2 73 -6 78 -17 3 -8 10 -15 17 -15 6 0 20 -11 31 -25 11 -14 26 -25
33 -25 7 0 22 -11 33 -25 20 -25 42 -33 42 -16 0 5 -6 12 -12 14 -9 4 -10 6
-1 6 15 1 43 -27 42 -42 0 -9 -2 -8 -6 1 -5 14 -23 16 -23 3 0 -19 62 -71 85
-71 20 0 26 -8 37 -47 10 -34 21 -51 43 -63 38 -21 44 -47 13 -52 -22 -4 -22
-5 -4 -13 13 -6 21 -5 24 3 2 7 12 12 23 12 15 0 19 -7 19 -39 0 -22 5 -41 11
-43 5 -2 13 -39 17 -83 6 -75 7 -77 13 -35 l6 45 1 -42 c2 -31 6 -43 17 -43
11 0 15 -11 15 -40 0 -22 5 -40 10 -40 6 0 10 -33 10 -80 0 -47 -4 -80 -10
-80 -6 0 -10 -33 -10 -80 0 -64 -3 -80 -15 -80 -11 0 -15 -11 -15 -40 0 -30 4
-40 16 -40 8 0 12 -4 9 -10 -3 -5 -13 -10 -21 -10 -10 0 -14 14 -16 53 -1 50
-2 50 -5 10 -3 -36 -8 -43 -25 -43 -19 0 -20 -4 -15 -53 4 -45 2 -55 -13 -65
-10 -6 -20 -26 -22 -43 -2 -24 -11 -37 -33 -50 -16 -9 -29 -22 -27 -28 1 -7
-29 -43 -68 -81 -38 -38 -70 -76 -70 -84 0 -16 -56 -76 -71 -76 -13 0 -11 17
4 24 6 3 3 5 -7 3 -11 -1 -27 -15 -36 -32 -15 -27 -22 -30 -73 -33 -44 -2 -57
-7 -57 -19 0 -13 -9 -15 -50 -11 -28 3 -53 1 -56 -3 -3 -5 2 -9 10 -9 9 0 16
-7 16 -15 0 -12 -17 -15 -82 -17 l-83 -2 85 -6 85 -6 -82 -2 c-66 -2 -83 -5
-83 -17 0 -12 -20 -15 -120 -15 -100 0 -120 3 -120 15 0 11 -13 15 -52 17
l-53 1 55 7 55 7 -52 1 c-31 1 -58 8 -67 17 -18 18 -43 20 -49 3 -4 -10 -7
-10 -18 0 -7 6 -30 12 -51 12 -27 0 -40 5 -48 20 -8 14 -8 20 0 20 8 0 8 6 0
20 -8 15 -21 20 -55 20 -25 0 -45 3 -45 8 0 4 -14 15 -30 24 -17 10 -33 25
-37 35 -14 40 -65 93 -89 93 -13 0 -24 5 -24 10 0 6 -12 22 -27 35 -24 21 -26
26 -13 35 13 9 11 14 -12 35 -30 26 -35 41 -15 48 10 4 10 7 0 18 -11 11 -13
10 -14 -7 0 -19 -1 -19 -10 1 -8 17 -9 17 -5 -5 3 -14 2 -37 -2 -50 -6 -24 -7
-23 -13 10 -4 21 -7 -9 -8 -75 -1 -69 5 -136 15 -180 9 -39 18 -83 21 -100 2
-16 8 -39 13 -50 4 -11 18 -48 30 -83 55 -160 201 -383 319 -487 19 -16 42
-37 50 -46 41 -43 195 -149 217 -149 7 0 14 -4 14 -9 0 -9 129 -71 148 -71 7
0 12 -4 12 -9 0 -5 10 -11 23 -14 12 -3 54 -15 92 -27 99 -30 171 -41 320 -47
126 -5 365 13 365 27 0 3 36 13 80 20 44 7 80 17 80 22 0 4 9 8 20 8 11 0 20
5 20 10 0 6 9 10 20 10 11 0 20 5 20 10 0 6 9 10 20 10 11 0 20 5 20 10 0 6
13 10 30 10 19 0 34 7 42 20 7 11 20 20 28 20 9 0 22 9 30 20 8 12 26 20 42
20 21 0 28 5 28 20 0 11 7 20 15 20 9 0 27 11 41 25 14 14 29 25 34 25 6 0 10
5 10 11 0 16 26 39 44 39 9 0 16 8 16 20 0 11 7 20 15 20 18 0 65 43 65 60 0
5 5 10 10 10 6 0 10 7 10 15 0 8 5 15 10 15 6 0 10 7 10 15 0 8 9 20 20 27 11
7 20 17 20 23 0 6 9 17 20 25 11 8 20 21 20 30 0 9 9 22 20 30 11 8 20 22 20
32 0 10 5 18 10 18 6 0 10 7 10 16 0 8 7 22 15 31 9 8 19 28 22 44 3 16 9 29
14 29 5 0 9 11 9 25 0 15 8 40 17 58 9 18 20 49 25 70 4 20 13 56 18 80 28
114 38 294 25 437 -8 84 -47 254 -72 315 -52 126 -139 294 -163 315 -3 3 -17
21 -30 40 -13 19 -71 82 -129 140 -140 138 -294 240 -456 300 -33 13 -76 29
-95 36 -102 39 -361 61 -530 45z"/>
<path d="M10290 11120 c0 -64 3 -80 15 -80 12 0 15 16 15 80 0 64 -3 80 -15
80 -12 0 -15 -16 -15 -80z"/>
<path d="M6790 10425 c0 -5 5 -17 10 -25 5 -8 10 -10 10 -5 0 6 -5 17 -10 25
-5 8 -10 11 -10 5z"/>
<path d="M9971 10394 c0 -11 3 -14 6 -6 3 7 2 16 -1 19 -3 4 -6 -2 -5 -13z"/>
<path d="M8880 10381 c0 -12 5 -21 10 -21 6 0 10 6 10 14 0 8 -4 18 -10 21 -5
3 -10 -3 -10 -14z"/>
<path d="M6820 10362 c6 -13 14 -21 18 -18 3 4 -2 14 -12 24 -18 16 -18 16 -6
-6z"/>
<path d="M9040 10301 c0 -12 5 -21 10 -21 6 0 10 6 10 14 0 8 -4 18 -10 21 -5
3 -10 -3 -10 -14z"/>
<path d="M14561 10174 c0 -11 3 -14 6 -6 3 7 2 16 -1 19 -3 4 -6 -2 -5 -13z"/>
<path d="M14582 10105 c0 -16 2 -22 5 -12 2 9 2 23 0 30 -3 6 -5 -1 -5 -18z"/>
<path d="M14562 9723 c-1 -24 -6 -43 -12 -43 -5 0 -10 -9 -10 -20 0 -11 -4
-20 -10 -20 -5 0 -10 -9 -10 -20 0 -11 -4 -20 -10 -20 -5 0 -10 -8 -10 -18 0
-10 -9 -24 -20 -32 -11 -8 -20 -21 -20 -28 0 -7 -18 -31 -40 -52 -22 -21 -40
-44 -40 -50 0 -15 -18 -31 -52 -49 -15 -8 -25 -18 -22 -23 3 -4 -1 -8 -8 -8
-8 0 -20 -9 -28 -20 -8 -11 -21 -20 -29 -20 -7 0 -22 -10 -32 -22 -11 -12 -19
-16 -19 -8 0 8 -8 4 -19 -8 -10 -12 -26 -22 -35 -22 -9 0 -16 -4 -16 -10 0 -5
-9 -10 -20 -10 -11 0 -20 -4 -20 -10 0 -5 -24 -10 -52 -10 -38 0 -49 -3 -38
-10 11 -7 -7 -10 -60 -12 l-75 -2 85 -6 c76 -6 68 -7 -75 -10 l-160 -3 110 -8
c126 -9 216 -4 226 12 4 6 12 8 18 4 7 -3 28 3 47 14 19 12 46 21 59 21 13 0
28 6 32 14 4 7 25 21 46 31 20 9 37 21 37 26 0 5 4 9 10 9 5 0 22 12 37 26 71
66 123 120 123 126 0 5 8 8 17 8 13 0 14 3 6 11 -14 14 -6 39 13 39 8 0 14 7
14 15 0 8 4 15 9 15 5 0 17 24 27 53 9 28 21 55 26 58 5 3 7 35 5 70 -2 43 -4
50 -5 22z"/>
<path d="M5650 9306 c0 -2 7 -7 16 -10 8 -3 12 -2 9 4 -6 10 -25 14 -25 6z"/>
<path d="M5730 9260 c8 -5 20 -10 25 -10 6 0 3 5 -5 10 -8 5 -19 10 -25 10 -5
0 -3 -5 5 -10z"/>
<path d="M5805 9227 c17 -8 32 -13 34 -11 7 7 -3 12 -34 19 l-30 6 30 -14z"/>
<path d="M5898 9193 c7 -3 16 -2 19 1 4 3 -2 6 -13 5 -11 0 -14 -3 -6 -6z"/>
<path d="M13628 9173 c12 -2 30 -2 40 0 9 3 -1 5 -23 4 -22 0 -30 -2 -17 -4z"/>
<path d="M8515 7660 c-30 -6 -18 -8 46 -6 48 0 85 4 82 9 -5 9 -73 7 -128 -3z"/>
<path d="M8323 7653 c15 -2 39 -2 55 0 15 2 2 4 -28 4 -30 0 -43 -2 -27 -4z"/>
<path d="M8180 7642 c-20 -5 -17 -7 20 -13 l45 -6 -52 -1 c-34 -1 -53 2 -53
10 0 8 -30 9 -112 4 -170 -10 -648 -56 -688 -66 -19 -4 -62 -11 -95 -15 -145
-15 -447 -73 -441 -84 2 -3 -15 -7 -38 -7 -22 -1 -100 -22 -173 -47 -214 -74
-318 -141 -360 -234 -34 -74 -26 -111 36 -172 78 -75 225 -140 456 -201 66
-17 128 -34 139 -37 13 -3 16 -1 11 7 -4 7 3 5 16 -3 32 -21 414 -90 459 -83
21 3 30 2 21 -3 -13 -8 18 -13 154 -26 35 -4 44 -2 30 4 -15 7 -9 10 30 10 50
0 50 0 20 -13 -28 -12 -21 -13 92 -25 68 -7 127 -9 133 -6 5 3 10 15 10 26 0
14 7 19 30 19 17 0 30 -4 30 -10 0 -5 -6 -10 -12 -10 -26 0 17 -20 45 -20 23
0 27 4 27 28 0 39 -16 60 -32 44 -15 -15 -108 -16 -108 -1 0 6 7 8 16 5 9 -4
32 -4 50 0 l34 6 0 79 0 79 40 0 40 0 0 80 c0 73 2 80 20 80 17 0 20 7 20 40
0 33 3 40 20 40 17 0 20 7 20 40 l0 40 40 0 40 0 0 80 0 80 40 0 40 0 0 80 0
80 40 0 c40 0 40 0 40 39 l0 38 83 11 c70 9 74 10 27 10 -114 -2 -175 2 -162
11 10 6 4 10 -18 15 -18 3 -35 5 -39 5 -3 -1 -17 -4 -31 -7z m-183 -28 c-3 -3
-12 -4 -19 -1 -8 3 -5 6 6 6 11 1 17 -2 13 -5z m116 -1 c-7 -2 -19 -2 -25 0
-7 3 -2 5 12 5 14 0 19 -2 13 -5z m120 -10 c-7 -2 -19 -2 -25 0 -7 3 -2 5 12
5 14 0 19 -2 13 -5z m-775 -40 c-10 -2 -26 -2 -35 0 -10 3 -2 5 17 5 19 0 27
-2 18 -5z m-151 -19 c-3 -3 -12 -4 -19 -1 -8 3 -5 6 6 6 11 1 17 -2 13 -5z
m-997 -288 c0 -2 -8 -10 -17 -17 -16 -13 -17 -12 -4 4 13 16 21 21 21 13z
m1287 -542 c-3 -3 -12 -4 -19 -1 -8 3 -5 6 6 6 11 1 17 -2 13 -5z m-4 -21 c-7
-2 -19 -2 -25 0 -7 3 -2 5 12 5 14 0 19 -2 13 -5z m84 1 c-3 -3 -12 -4 -19 -1
-8 3 -5 6 6 6 11 1 17 -2 13 -5z m-154 -11 c-7 -2 -21 -2 -30 0 -10 3 -4 5 12
5 17 0 24 -2 18 -5z m237 -12 c0 -16 -39 -23 -78 -16 -32 6 -34 9 -17 15 28
12 95 12 95 1z m20 -21 c0 -5 -5 -10 -11 -10 -5 0 -7 5 -4 10 3 6 8 10 11 10
2 0 4 -4 4 -10z m40 0 c0 -5 -4 -10 -10 -10 -5 0 -10 5 -10 10 0 6 5 10 10 10
6 0 10 -4 10 -10z"/>
<path d="M8338 7633 c12 -2 32 -2 45 0 12 2 2 4 -23 4 -25 0 -35 -2 -22 -4z"/>
<path d="M8498 7633 c12 -2 32 -2 45 0 12 2 2 4 -23 4 -25 0 -35 -2 -22 -4z"/>
<path d="M8603 7633 c9 -2 23 -2 30 0 6 3 -1 5 -18 5 -16 0 -22 -2 -12 -5z"/>
<path d="M8019 6714 c-8 -68 -8 -74 6 -74 10 0 13 9 9 37 -4 35 -13 56 -15 37z"/>
<path d="M8101 6654 c0 -11 3 -14 6 -6 3 7 2 16 -1 19 -3 4 -6 -2 -5 -13z"/>
<path d="M7840 6629 c0 -5 28 -9 63 -8 71 1 67 5 -10 12 -29 2 -53 0 -53 -4z"/>
<path d="M7990 6620 c-18 -12 -2 -12 25 0 13 6 15 9 5 9 -8 0 -22 -4 -30 -9z"/>
</g>
</svg>
